<svg width="80" height="80" viewBox="0 0 80 80" fill="none" xmlns="http://www.w3.org/2000/svg">
<path d="M16.1667 66.6666C11.6667 66.6666 7.84722 65.0833 4.70833 61.9166C1.56944 58.75 0 54.9166 0 50.4166C0 45.9166 1.58333 42.0972 4.75 38.9583C7.91667 35.8194 11.75 34.25 16.25 34.25C20.1944 34.25 23.6528 35.5139 26.625 38.0416C29.5972 40.5694 31.3889 43.7778 32 47.6666H36.25L29.4167 28.3333H23.3333V23.3333H39V28.3333H34.6667L36.8333 34.25H55.3333L49.4167 18.3333H40.6667V13.3333H48.9167C50.25 13.3333 51.375 13.6389 52.2917 14.25C53.2083 14.8611 53.8889 15.7778 54.3333 17L60.6667 34.25H63.8333C68.3333 34.25 72.1528 35.8055 75.2917 38.9166C78.4305 42.0278 80 45.8055 80 50.25C80 54.75 78.4305 58.6111 75.2917 61.8333C72.1528 65.0555 68.3333 66.6666 63.8333 66.6666C59.8333 66.6666 56.3333 65.3333 53.3333 62.6666C50.3333 60 48.5 56.6666 47.8333 52.6666H32C31.3889 56.6666 29.5972 60 26.625 62.6666C23.6528 65.3333 20.1667 66.6666 16.1667 66.6666ZM16.1667 61.6666C18.8333 61.6666 21.1528 60.8055 23.125 59.0833C25.0972 57.3611 26.4167 55.2222 27.0833 52.6666H17.1667V47.6666H27.0833C26.4167 45.1666 25.0833 43.1389 23.0833 41.5833C21.0833 40.0278 18.8056 39.25 16.25 39.25C13.1389 39.25 10.4861 40.3333 8.29167 42.5C6.09722 44.6666 5 47.3055 5 50.4166C5 53.5278 6.08333 56.1805 8.25 58.375C10.4167 60.5694 13.0556 61.6666 16.1667 61.6666ZM41.5833 47.6666H47.9167C48.1389 46.3889 48.5694 44.9722 49.2083 43.4166C49.8472 41.8611 50.7222 40.4722 51.8333 39.25H38.5833L41.5833 47.6666ZM63.8333 61.6666C66.9444 61.6666 69.5833 60.5694 71.75 58.375C73.9167 56.1805 75 53.5278 75 50.4166C75 47.3055 73.9167 44.6666 71.75 42.5C69.5833 40.3333 66.9444 39.25 63.8333 39.25H62.5L65.75 48.6666L61.0833 50.25L57.5 40.9166C55.8889 41.8611 54.6806 43.1944 53.875 44.9166C53.0694 46.6389 52.6667 48.4722 52.6667 50.4166C52.6667 53.5278 53.75 56.1805 55.9167 58.375C58.0833 60.5694 60.7222 61.6666 63.8333 61.6666Z" fill="#FFBC11"/>
</svg>
