<svg width="113" height="50" viewBox="0 0 113 50" fill="none" xmlns="http://www.w3.org/2000/svg">
<path d="M16.192 12.696V15.064H10.112V35H7.2V15.064H1.088V12.696H16.192ZM28.4805 17.144C29.8032 17.144 30.9978 17.432 32.0645 18.008C33.1312 18.5627 33.9632 19.4053 34.5605 20.536C35.1792 21.6667 35.4885 23.0427 35.4885 24.664V35H32.6085V25.08C32.6085 23.3307 32.1712 21.9973 31.2965 21.08C30.4218 20.1413 29.2272 19.672 27.7125 19.672C26.1765 19.672 24.9498 20.152 24.0325 21.112C23.1365 22.072 22.6885 23.4693 22.6885 25.304V35H19.7765V11.32H22.6885V19.96C23.2645 19.064 24.0538 18.3707 25.0565 17.88C26.0805 17.3893 27.2218 17.144 28.4805 17.144ZM41.7493 14.616C41.1946 14.616 40.7253 14.424 40.3413 14.04C39.9573 13.656 39.7653 13.1867 39.7653 12.632C39.7653 12.0773 39.9573 11.608 40.3413 11.224C40.7253 10.84 41.1946 10.648 41.7493 10.648C42.2826 10.648 42.7306 10.84 43.0933 11.224C43.4773 11.608 43.6693 12.0773 43.6693 12.632C43.6693 13.1867 43.4773 13.656 43.0933 14.04C42.7306 14.424 42.2826 14.616 41.7493 14.616ZM43.1573 17.464V35H40.2453V17.464H43.1573ZM55.3523 17.176C56.8669 17.176 58.1896 17.5067 59.3203 18.168C60.4723 18.8293 61.3256 19.6613 61.8803 20.664V17.464H64.8243V35.384C64.8243 36.984 64.4829 38.4027 63.8003 39.64C63.1176 40.8987 62.1363 41.88 60.8563 42.584C59.5976 43.288 58.1256 43.64 56.4403 43.64C54.1363 43.64 52.2163 43.096 50.6803 42.008C49.1443 40.92 48.2376 39.4373 47.9603 37.56H50.8403C51.1603 38.6267 51.8216 39.48 52.8243 40.12C53.8269 40.7813 55.0323 41.112 56.4403 41.112C58.0403 41.112 59.3416 40.6107 60.3443 39.608C61.3683 38.6053 61.8803 37.1973 61.8803 35.384V31.704C61.3043 32.728 60.4509 33.5813 59.3203 34.264C58.1896 34.9467 56.8669 35.288 55.3523 35.288C53.7949 35.288 52.3763 34.904 51.0963 34.136C49.8376 33.368 48.8456 32.2907 48.1203 30.904C47.3949 29.5173 47.0323 27.9387 47.0323 26.168C47.0323 24.376 47.3949 22.808 48.1203 21.464C48.8456 20.0987 49.8376 19.0427 51.0963 18.296C52.3763 17.5493 53.7949 17.176 55.3523 17.176ZM61.8803 26.2C61.8803 24.8773 61.6136 23.7253 61.0803 22.744C60.5469 21.7627 59.8216 21.016 58.9043 20.504C58.0083 19.9707 57.0163 19.704 55.9283 19.704C54.8403 19.704 53.8483 19.96 52.9523 20.472C52.0563 20.984 51.3416 21.7307 50.8083 22.712C50.2749 23.6933 50.0083 24.8453 50.0083 26.168C50.0083 27.512 50.2749 28.6853 50.8083 29.688C51.3416 30.6693 52.0563 31.4267 52.9523 31.96C53.8483 32.472 54.8403 32.728 55.9283 32.728C57.0163 32.728 58.0083 32.472 58.9043 31.96C59.8216 31.4267 60.5469 30.6693 61.0803 29.688C61.6136 28.6853 61.8803 27.5227 61.8803 26.2ZM68.6573 26.168C68.6573 24.376 69.0199 22.808 69.7453 21.464C70.4706 20.0987 71.4626 19.0427 72.7213 18.296C74.0013 17.5493 75.4199 17.176 76.9773 17.176C78.5133 17.176 79.8466 17.5067 80.9773 18.168C82.1079 18.8293 82.9506 19.6613 83.5053 20.664V17.464H86.4493V35H83.5053V31.736C82.9293 32.76 82.0653 33.6133 80.9133 34.296C79.7826 34.9573 78.4599 35.288 76.9453 35.288C75.3879 35.288 73.9799 34.904 72.7213 34.136C71.4626 33.368 70.4706 32.2907 69.7453 30.904C69.0199 29.5173 68.6573 27.9387 68.6573 26.168ZM83.5053 26.2C83.5053 24.8773 83.2386 23.7253 82.7053 22.744C82.1719 21.7627 81.4466 21.016 80.5293 20.504C79.6333 19.9707 78.6413 19.704 77.5533 19.704C76.4653 19.704 75.4733 19.96 74.5773 20.472C73.6813 20.984 72.9666 21.7307 72.4333 22.712C71.8999 23.6933 71.6333 24.8453 71.6333 26.168C71.6333 27.512 71.8999 28.6853 72.4333 29.688C72.9666 30.6693 73.6813 31.4267 74.5773 31.96C75.4733 32.472 76.4653 32.728 77.5533 32.728C78.6413 32.728 79.6333 32.472 80.5293 31.96C81.4466 31.4267 82.1719 30.6693 82.7053 29.688C83.2386 28.6853 83.5053 27.5227 83.5053 26.2ZM97.5783 35.288C96.2343 35.288 95.0289 35.064 93.9623 34.616C92.8956 34.1467 92.0529 33.5067 91.4343 32.696C90.8156 31.864 90.4743 30.9147 90.4103 29.848H93.4183C93.5036 30.7227 93.9089 31.4373 94.6343 31.992C95.3809 32.5467 96.3516 32.824 97.5463 32.824C98.6556 32.824 99.5303 32.5787 100.17 32.088C100.81 31.5973 101.13 30.9787 101.13 30.232C101.13 29.464 100.789 28.8987 100.106 28.536C99.4236 28.152 98.3676 27.7787 96.9383 27.416C95.6369 27.0747 94.5703 26.7333 93.7383 26.392C92.9276 26.0293 92.2236 25.5067 91.6263 24.824C91.0503 24.12 90.7623 23.2027 90.7623 22.072C90.7623 21.176 91.0289 20.3547 91.5623 19.608C92.0956 18.8613 92.8529 18.2747 93.8343 17.848C94.8156 17.4 95.9356 17.176 97.1943 17.176C99.1356 17.176 100.704 17.6667 101.898 18.648C103.093 19.6293 103.733 20.9733 103.818 22.68H100.906C100.842 21.7627 100.469 21.0267 99.7863 20.472C99.1249 19.9173 98.2289 19.64 97.0983 19.64C96.0529 19.64 95.2209 19.864 94.6023 20.312C93.9836 20.76 93.6743 21.3467 93.6743 22.072C93.6743 22.648 93.8556 23.128 94.2183 23.512C94.6023 23.8747 95.0716 24.1733 95.6263 24.408C96.2023 24.6213 96.9916 24.8667 97.9943 25.144C99.2529 25.4853 100.277 25.8267 101.066 26.168C101.856 26.488 102.528 26.9787 103.082 27.64C103.658 28.3013 103.957 29.1653 103.978 30.232C103.978 31.192 103.712 32.056 103.178 32.824C102.645 33.592 101.888 34.2 100.906 34.648C99.9463 35.0747 98.8369 35.288 97.5783 35.288Z" fill="#484848"/>
<path d="M109.017 35.192C108.462 35.192 107.993 35 107.609 34.616C107.225 34.232 107.033 33.7627 107.033 33.208C107.033 32.6533 107.225 32.184 107.609 31.8C107.993 31.416 108.462 31.224 109.017 31.224C109.55 31.224 109.998 31.416 110.361 31.8C110.745 32.184 110.937 32.6533 110.937 33.208C110.937 33.7627 110.745 34.232 110.361 34.616C109.998 35 109.55 35.192 109.017 35.192Z" fill="#FFBC11"/>
<rect x="68" y="39" width="45" height="3" rx="1.5" fill="#AF14D6"/>
</svg>
